<svg xmlns="http://www.w3.org/2000/svg" width="103" height="103" viewBox="0 0 103 103">
  <g id="location" transform="translate(-515 -1112)">
    <circle id="Ellipse_485" data-name="Ellipse 485" cx="51.5" cy="51.5" r="51.5" transform="translate(515 1112)" fill="#1c84ae" opacity="0.45"/>
    <circle id="Ellipse_483" data-name="Ellipse 483" cx="38" cy="38" r="38" transform="translate(528 1125)" fill="#1c84ae" opacity="0.4"/>
    <circle id="Ellipse_484" data-name="Ellipse 484" cx="25" cy="25" r="25" transform="translate(541 1138)" fill="#1c84ae"/>
    <path id="location-2" data-name="location" d="M230.662,120.023a7.75,7.75,0,0,0-7.976,7.519c-.127,4.279,7.432,12.558,7.382,12.556s7.986-7.82,8.113-12.1A7.751,7.751,0,0,0,230.662,120.023Zm-.273,10.917a3.315,3.315,0,1,1,3.411-3.216A3.317,3.317,0,0,1,230.389,130.94Z" transform="translate(336.315 1027.999)" fill="#ff8bbc"/>
  </g>
</svg>
